<svg version="1.1" id="Layer_1" xmlns="http://www.w3.org/2000/svg" xmlns:xlink="http://www.w3.org/1999/xlink" x="0px" y="0px"
	 width="100%" viewBox="0 0 500 500" enable-background="new 0 0 500 500" xml:space="preserve">
<path fill="#FFFFFF" opacity="1.000000" stroke="none" 
	d="
M290.000000,501.000000 
	C193.333359,501.000000 97.166710,501.000000 1.000051,501.000000 
	C1.000034,334.333405 1.000034,167.666794 1.000017,1.000141 
	C167.666565,1.000094 334.333130,1.000094 500.999756,1.000047 
	C500.999847,167.666519 500.999847,334.333038 500.999939,500.999786 
	C430.833344,501.000000 360.666656,501.000000 290.000000,501.000000 
M99.000000,388.500000 
	C99.000000,396.497711 98.945320,404.495911 99.012390,412.493073 
	C99.122078,425.572540 100.792618,438.469116 105.078865,450.838562 
	C111.140724,468.332031 121.699867,482.194336 138.819931,490.353668 
	C152.288773,496.772888 166.807800,498.367889 181.381027,498.831726 
	C189.684586,499.096008 198.038239,497.614532 206.376083,497.013000 
	C219.694962,496.052032 232.325546,492.386200 244.766525,487.737793 
	C251.459198,485.237213 256.614624,482.878693 256.398071,473.720306 
	C256.182343,464.595337 258.672577,455.403870 260.005341,446.245758 
	C260.916718,439.983246 261.957306,433.738525 262.793915,427.466400 
	C263.604675,421.388031 264.228607,415.284729 264.976898,408.827332 
	C261.172394,410.404297 257.724854,411.669312 254.418045,413.232086 
	C239.260193,420.395599 223.497726,424.880890 206.562134,423.958862 
	C200.658401,423.637421 195.245544,421.876923 190.900497,417.449219 
	C183.894104,410.309631 183.184204,401.037720 183.139603,392.084930 
	C182.862427,336.431976 183.000000,280.777008 183.000000,225.122681 
	C183.000000,223.513397 183.000000,221.904114 183.000000,219.908020 
	C209.224426,219.908020 234.961395,219.908020 260.757812,219.908020 
	C260.757812,195.110794 260.757812,170.709381 260.757812,145.914062 
	C234.781677,145.914062 209.044708,145.914062 182.752991,145.914062 
	C182.752991,98.384468 182.752991,51.247475 182.752991,3.946893 
	C176.381042,6.799285 170.471359,9.274078 164.709335,12.054818 
	C144.147400,21.977955 123.691460,32.123260 103.048141,41.872658 
	C99.730721,43.439407 98.921791,45.190208 98.934082,48.547268 
	C99.046257,79.206726 99.000000,109.866760 99.000000,140.526627 
	C99.000000,142.288483 99.000000,144.050339 99.000000,146.199677 
	C82.000481,146.199677 65.593849,146.199677 49.297131,146.199677 
	C49.297131,171.000015 49.297131,195.401993 49.297131,220.198029 
	C65.997841,220.198029 82.404480,220.198029 98.737328,220.198029 
	C98.869072,220.908157 98.978477,221.222626 98.978546,221.537125 
	C98.990799,276.858093 98.995255,332.179047 99.000000,388.500000 
M351.469360,209.043503 
	C354.721710,210.362885 357.879425,212.035873 361.243896,212.936417 
	C372.048950,215.828659 382.910095,216.555328 394.178925,215.190903 
	C407.941254,213.524551 419.689056,208.180954 429.544556,198.836411 
	C444.783569,184.387527 451.022675,165.487030 452.750092,145.377884 
	C454.262726,127.769150 453.609467,109.994675 446.996002,93.060883 
	C439.169525,73.021194 426.315704,58.029091 405.122711,51.637840 
	C393.151398,48.027611 380.903046,48.292431 368.598938,49.965481 
	C353.109833,52.071606 340.751465,59.835751 331.204132,71.660065 
	C319.611420,86.017578 314.659058,103.305733 313.180023,121.346687 
	C312.107574,134.428009 312.650848,147.635376 315.991821,160.539276 
	C321.333038,181.168808 331.193054,198.514938 351.469360,209.043503 
z"/>
<path fill="#000000" opacity="1.000000" stroke="none" 
	d="
M99.000000,388.000000 
	C98.995255,332.179047 98.990799,276.858093 98.978546,221.537125 
	C98.978477,221.222626 98.869072,220.908157 98.737328,220.198029 
	C82.404480,220.198029 65.997841,220.198029 49.297131,220.198029 
	C49.297131,195.401993 49.297131,171.000015 49.297131,146.199677 
	C65.593849,146.199677 82.000481,146.199677 99.000000,146.199677 
	C99.000000,144.050339 99.000000,142.288483 99.000000,140.526627 
	C99.000000,109.866760 99.046257,79.206726 98.934082,48.547268 
	C98.921791,45.190208 99.730721,43.439407 103.048141,41.872658 
	C123.691460,32.123260 144.147400,21.977955 164.709335,12.054818 
	C170.471359,9.274078 176.381042,6.799285 182.752991,3.946893 
	C182.752991,51.247475 182.752991,98.384468 182.752991,145.914062 
	C209.044708,145.914062 234.781677,145.914062 260.757812,145.914062 
	C260.757812,170.709381 260.757812,195.110794 260.757812,219.908020 
	C234.961395,219.908020 209.224426,219.908020 183.000000,219.908020 
	C183.000000,221.904114 183.000000,223.513397 183.000000,225.122681 
	C183.000000,280.777008 182.862427,336.431976 183.139603,392.084930 
	C183.184204,401.037720 183.894104,410.309631 190.900497,417.449219 
	C195.245544,421.876923 200.658401,423.637421 206.562134,423.958862 
	C223.497726,424.880890 239.260193,420.395599 254.418045,413.232086 
	C257.724854,411.669312 261.172394,410.404297 264.976898,408.827332 
	C264.228607,415.284729 263.604675,421.388031 262.793915,427.466400 
	C261.957306,433.738525 260.916718,439.983246 260.005341,446.245758 
	C258.672577,455.403870 256.182343,464.595337 256.398071,473.720306 
	C256.614624,482.878693 251.459198,485.237213 244.766525,487.737793 
	C232.325546,492.386200 219.694962,496.052032 206.376083,497.013000 
	C198.038239,497.614532 189.684586,499.096008 181.381027,498.831726 
	C166.807800,498.367889 152.288773,496.772888 138.819931,490.353668 
	C121.699867,482.194336 111.140724,468.332031 105.078865,450.838562 
	C100.792618,438.469116 99.122078,425.572540 99.012390,412.493073 
	C98.945320,404.495911 99.000000,396.497711 99.000000,388.000000 
z"/>
<path fill="#000000" opacity="1.000000" stroke="none" 
	d="
M351.084167,209.007950 
	C331.193054,198.514938 321.333038,181.168808 315.991821,160.539276 
	C312.650848,147.635376 312.107574,134.428009 313.180023,121.346687 
	C314.659058,103.305733 319.611420,86.017578 331.204132,71.660065 
	C340.751465,59.835751 353.109833,52.071606 368.598938,49.965481 
	C380.903046,48.292431 393.151398,48.027611 405.122711,51.637840 
	C426.315704,58.029091 439.169525,73.021194 446.996002,93.060883 
	C453.609467,109.994675 454.262726,127.769150 452.750092,145.377884 
	C451.022675,165.487030 444.783569,184.387527 429.544556,198.836411 
	C419.689056,208.180954 407.941254,213.524551 394.178925,215.190903 
	C382.910095,216.555328 372.048950,215.828659 361.243896,212.936417 
	C357.879425,212.035873 354.721710,210.362885 351.084167,209.007950 
M402.964844,88.398514 
	C403.533325,87.361923 404.101776,86.325333 404.690582,85.251671 
	C404.230377,85.130150 403.854950,85.131027 403.611023,84.952377 
	C384.971893,71.299660 361.841431,78.263802 351.608063,98.879486 
	C344.601501,112.994720 344.326111,128.179108 345.138611,143.395050 
	C345.402557,148.337662 347.190033,153.198929 348.280640,158.097412 
	C348.853790,158.391769 349.426910,158.686127 350.000031,158.980499 
	C351.013153,157.470566 351.968567,155.917923 353.048737,154.457565 
	C360.355316,144.579407 367.616669,134.666595 375.030914,124.869621 
	C384.125519,112.852303 393.355103,100.937126 402.964844,88.398514 
M392.279083,185.005615 
	C405.640564,181.641754 412.147675,171.484329 416.954926,159.812622 
	C422.444397,146.484589 421.107910,132.389984 420.835754,118.508606 
	C420.752533,114.264870 418.847839,110.056854 417.494049,104.714638 
	C398.380890,129.999969 380.104584,154.178177 361.887543,178.278000 
	C368.548431,185.156693 382.124725,188.127090 392.279083,185.005615 
z"/>
<path fill="#FFFFFF" opacity="1.000000" stroke="none" 
	d="
M402.745544,88.688141 
	C393.355103,100.937126 384.125519,112.852303 375.030914,124.869621 
	C367.616669,134.666595 360.355316,144.579407 353.048737,154.457565 
	C351.968567,155.917923 351.013153,157.470566 350.000031,158.980499 
	C349.426910,158.686127 348.853790,158.391769 348.280640,158.097412 
	C347.190033,153.198929 345.402557,148.337662 345.138611,143.395050 
	C344.326111,128.179108 344.601501,112.994720 351.608063,98.879486 
	C361.841431,78.263802 384.971893,71.299660 403.611023,84.952377 
	C403.854950,85.131027 404.230377,85.130150 404.690582,85.251671 
	C404.101776,86.325333 403.533325,87.361923 402.745544,88.688141 
z"/>
<path fill="#FFFFFF" opacity="1.000000" stroke="none" 
	d="
M391.847504,185.051208 
	C382.124725,188.127090 368.548431,185.156693 361.887543,178.278000 
	C380.104584,154.178177 398.380890,129.999969 417.494049,104.714638 
	C418.847839,110.056854 420.752533,114.264870 420.835754,118.508606 
	C421.107910,132.389984 422.444397,146.484589 416.954926,159.812622 
	C412.147675,171.484329 405.640564,181.641754 391.847504,185.051208 
z"/>
</svg>